<svg width="30" height="32" viewBox="0 0 30 32" fill="none" xmlns="http://www.w3.org/2000/svg">
<path d="M0 2V8H30V2H27V5H23V2H7V5H3V2H0Z" fill="white"/>
<rect x="4" width="2" height="4" fill="white"/>
<rect x="24" width="2" height="4" fill="white"/>
<rect x="0.5" y="10.5" width="29" height="21" stroke="white"/>
<rect x="4.25" y="13.25" width="3.5" height="3.5" stroke="white" stroke-width="0.5"/>
<rect x="4.25" y="19.25" width="3.5" height="3.5" stroke="white" stroke-width="0.5"/>
<rect x="4.25" y="25.25" width="3.5" height="3.5" stroke="white" stroke-width="0.5"/>
<rect x="22.25" y="13.25" width="3.5" height="3.5" stroke="white" stroke-width="0.5"/>
<rect x="22.25" y="19.25" width="3.5" height="3.5" stroke="white" stroke-width="0.5"/>
<rect x="22.25" y="25.25" width="3.5" height="3.5" stroke="white" stroke-width="0.5"/>
<rect x="13.25" y="13.25" width="3.5" height="3.5" stroke="white" stroke-width="0.5"/>
<rect x="13.25" y="19.25" width="3.5" height="3.5" stroke="white" stroke-width="0.5"/>
<rect x="13.25" y="25.25" width="3.5" height="3.5" stroke="white" stroke-width="0.5"/>
</svg>
