<?xml version="1.0" encoding="utf-8"?>
<!-- Generator: Adobe Illustrator 26.0.1, SVG Export Plug-In . SVG Version: 6.00 Build 0)  -->
<svg version="1.1" id="Calque_1" xmlns="http://www.w3.org/2000/svg" xmlns:xlink="http://www.w3.org/1999/xlink" x="0px" y="0px"
	 viewBox="0 0 480 480" style="enable-background:new 0 0 480 480;" xml:space="preserve">
<style type="text/css">
	.st0{fill-rule:evenodd;clip-rule:evenodd;}
</style>
<g>
	<path class="st0" d="M52.9,428.3c7.5,7.5,17.7,11.7,28.3,11.7h221.7c10.6,0,20.8-4.2,28.3-11.7l1.1-1.1
		c7.5-7.5,11.7-17.7,11.7-28.3V177.1c0-10.6-4.2-20.8-11.7-28.3l-1.1-1.1c-7.5-7.5-17.7-11.7-28.3-11.7H81.1
		c-10.6,0-20.8,4.2-28.3,11.7l-1.1,1.1c-7.5,7.5-11.7,17.7-11.7,28.3v221.7c0,10.6,4.2,20.8,11.7,28.3L52.9,428.3z M360.6,120.6
		l-1.1-1.1c-15-15-35.3-23.4-56.6-23.4H81.1c-21.2,0-41.6,8.4-56.6,23.4l-1.1,1.1C8.4,135.6,0,155.9,0,177.1v221.7
		c0,21.2,8.4,41.6,23.4,56.6l1.1,1.1c15,15,35.3,23.4,56.6,23.4h221.7c21.2,0,41.6-8.4,56.6-23.4l1.1-1.1c15-15,23.4-35.4,23.4-56.6
		V177.1C384,155.9,375.6,135.6,360.6,120.6L360.6,120.6z"/>
	<path class="st0" d="M384,344h14.9c10.6,0,20.8-4.2,28.3-11.7l1.1-1.1c7.5-7.5,11.7-17.7,11.7-28.3V81.1c0-10.6-4.2-20.8-11.7-28.3
		l-1.1-1.1c-7.5-7.5-17.7-11.7-28.3-11.7H177.1c-10.6,0-20.8,4.2-28.3,11.7l-1.1,1.1c-7.5,7.5-11.7,17.7-11.7,28.3V96H96V81.1
		c0-21.2,8.4-41.6,23.4-56.6l1.1-1.1c15-15,35.3-23.4,56.6-23.4h221.7c21.2,0,41.6,8.4,56.6,23.4l1.1,1.1c15,15,23.4,35.3,23.4,56.6
		v221.7c0,21.2-8.4,41.6-23.4,56.6l-1.1,1.1c-15,15-35.4,23.4-56.6,23.4H384L384,344z"/>
</g>
</svg>
