<?xml version="1.0" encoding="utf-8"?>
<!-- Generator: Adobe Illustrator 21.1.0, SVG Export Plug-In . SVG Version: 6.00 Build 0)  -->
<svg version="1.1" id="Layer_1" xmlns="http://www.w3.org/2000/svg" xmlns:xlink="http://www.w3.org/1999/xlink" x="0px" y="0px"
	 viewBox="0 0 54 50.9" style="enable-background:new 0 0 54 50.9;" xml:space="preserve">
<path d="M13.6,27.4L13.6,27.4c0.2-1.8,0.8-3.6,1.8-5.2c0.1-0.2,0.5-0.6,0.1-1c-0.9-1.3-1.6-2.7-2.1-4.2c-0.1-0.3-0.3-0.4-0.6-0.4
	c-0.1,0-0.2,0.1-0.3,0.2C9.6,20.1,8.1,24.3,8,28.7l0,0c-4.7,2.7-6.4,8.8-3.7,13.5s8.8,6.4,13.5,3.7s6.4-8.8,3.7-13.5
	C19.9,29.5,16.9,27.6,13.6,27.4L13.6,27.4z"/>
<path d="M22,21.3c4.5,2.6,10.2,1.3,13.2-3l0,0c1.5,1.1,2.7,2.5,3.6,4.1c0.1,0.2,0.3,0.7,0.8,0.6c1.6-0.1,3.1,0,4.7,0.3
	c0.3,0.1,0.5-0.1,0.6-0.3c0-0.1,0-0.2,0-0.3c-1.4-4.1-4.3-7.6-8-9.8l0,0c0.1-5.5-4.3-10-9.8-10c-5.5-0.1-10,4.3-10,9.8
	C17,16.2,18.9,19.5,22,21.3z"/>
<path d="M49.8,32.4c-2.6-4.8-8.6-6.6-13.4-4.1c-4.8,2.5-6.6,8.4-4.1,13.2l0,0c-1.7,0.7-3.5,1-5.4,1c-0.3,0-0.8-0.1-0.9,0.4
	c-0.7,1.4-1.5,2.7-2.6,3.9c-0.2,0.2-0.2,0.5,0,0.7c0.1,0.1,0.2,0.1,0.3,0.2c4.3,0.8,8.7,0.1,12.5-2l0,0c4.7,2.7,10.8,1.1,13.5-3.6
	C51.4,39.1,51.4,35.4,49.8,32.4z"/>
</svg>
