<svg xmlns="http://www.w3.org/2000/svg" x="0px" y="0px" viewBox="0 0 72.7 69.2">
<path d="M62.4,31.4v-4.7H15v4.7H0c0,0-0.4,8.1,3.8,12c4.7,4.2,11.1,6,11.1,6v3h8.4c0.5,0.5,1,1.3,1,2.5c0,2.1-1.4,2.9-2.5,3.2H15
	v11.1h47.4V58.1h-7.9c0,0-1.1-11.3,7.9-17.7c3.7-2.6,10.3-3.8,10.3-3.8v-5.1H62.4z M30.1,23.8l11.6-2.4l-0.5-7.6l22.5-3.5l-2-9.3
	L39.8,7.2l-2.4-6.9L25.8,2.6L27,13.4L30.1,23.8z M14.8,11.5l9.2,12h2.8l-5.2-10.2l2.3,0.1L19.3,1.8l-7.5,0.3l5.2,9.2L14.8,11.5z
	 M9.2,8.8L4.5,9l16.2,14L9.2,8.8z M11.8,6.2L8.1,0H3.5l5.1,6.2H11.8z M15.8,23.5l-6.5-4l-1.7,4H15.8z"/>
</svg>
