<svg width="34" height="30" viewBox="0 0 34 30" fill="none" xmlns="http://www.w3.org/2000/svg">
<path d="M23.0853 12.5107H7.56445V23.1217H23.0853V12.5107Z" fill="white"/>
<path d="M21.4645 24.6938C19.9786 24.6802 10.6445 24.6802 9.17208 24.6938C9.15857 27.9868 5.8761 27.8378 5.8761 27.8378V29.7892H24.774V27.8378C24.774 27.8378 21.478 27.9868 21.4645 24.6938Z" fill="white"/>
<path d="M24.639 13.9337C24.639 13.9337 24.639 17.3081 24.639 20.8993C32.9465 20.6012 34.0001 13.9337 34.0001 13.9337H24.639Z" fill="white"/>
<path d="M6.01112 13.9337H0V16.1697L6.01112 20.3166V13.9337Z" fill="white"/>
<path d="M17.5332 8.83255L19.2893 2.72074C19.3433 2.51746 19.2352 2.31419 19.0326 2.25998L15.9933 1.37912C15.7906 1.32491 15.588 1.43332 15.534 1.6366L13.7779 7.74842C13.7239 7.95169 13.832 8.15497 14.0346 8.20918L17.0739 9.09004C17.2765 9.13069 17.4792 9.02228 17.5332 8.83255Z" fill="white"/>
<path d="M2.36369 0.0104298C2.2151 -0.0302253 2.08002 0.0510849 2.0395 0.200154L1.58022 1.7857C1.5397 1.93477 1.62074 2.07029 1.76933 2.11094L13.4674 5.48532L14.0752 3.3848L2.36369 0.0104298Z" fill="white"/>
</svg>
