<svg width="18" height="22" viewBox="0 0 18 22" xmlns="http://www.w3.org/2000/svg">
<path d="M9 0.00924683C5.55 0.00924683 2.75 2.7959 2.75 6.21813V9.29813C2.05 9.29813 1.35 9.29813 0.675 9.29813C0.3 9.34702 0 9.6648 0 10.0315V21.2759C0 21.667 0.35 22.0092 0.75 22.0092H17.25C17.65 22.0092 18 21.667 18 21.2759V10.0315C18 9.64036 17.65 9.29813 17.25 9.29813H15.25V6.21813C15.25 2.7959 12.45 0.00924683 9 0.00924683ZM9 1.47591C11.625 1.47591 13.75 3.55368 13.75 6.21813V9.29813H4.25V6.21813C4.25 3.55368 6.375 1.47591 9 1.47591ZM1.5 10.7648H16.5V20.5426H1.5V10.7648ZM9 12.7204C7.775 12.7204 6.75 13.7226 6.75 14.9204C6.75 15.8737 7.375 16.6804 8.25 16.9981V18.0981C8.25 18.4892 8.6 18.8315 9 18.8315C9.4 18.8315 9.75 18.4648 9.75 18.0981V16.9981C10.625 16.7048 11.25 15.8737 11.25 14.9204C11.25 13.6981 10.225 12.7204 9 12.7204Z" />
</svg>
