<svg xmlns="http://www.w3.org/2000/svg" x="0px" y="0px" viewBox="0 0 62 50.3">
<path d="M62,8.4v33.4c0,4.7-3.8,8.4-8.4,8.4H41c-2.2,0.1-4-1.6-4.1-3.7c-0.1-2.2,1.6-4,3.7-4.1c0.1,0,0.3,0,0.4,0h12.6
	c0.3,0,0.6-0.3,0.6-0.6v0V8.4c0-0.3-0.3-0.6-0.6-0.6l0,0H41c-2.2,0.1-4-1.6-4.1-3.7s1.6-4,3.7-4.1c0.1,0,0.3,0,0.4,0h12.6
	C58.2,0,62,3.8,62,8.4z"/>
<path d="M42.4,25.6c0,2.2-1.8,3.9-3.9,3.9H13.4l8,8c1.5,1.5,1.5,4,0,5.5c0,0,0,0,0,0c-1.5,1.5-4,1.5-5.5,0c0,0,0,0,0,0L1.1,28.4
	c-1.5-1.6-1.5-4,0-5.6L15.8,8.2c1.5-1.5,4-1.5,5.6,0c0.7,0.7,1.1,1.7,1.1,2.8c0,1-0.4,2-1.2,2.8l-8,8h25.1
	C40.6,21.8,42.3,23.5,42.4,25.6z"/>
</svg>
