<?xml version="1.0" encoding="utf-8"?>
<!-- Generator: Adobe Illustrator 21.1.0, SVG Export Plug-In . SVG Version: 6.00 Build 0)  -->
<svg version="1.1" id="Calque_1" xmlns="http://www.w3.org/2000/svg" xmlns:xlink="http://www.w3.org/1999/xlink" x="0px" y="0px"
	 viewBox="0 0 38.8 42.9" style="enable-background:new 0 0 38.8 42.9;" xml:space="preserve">
<g>
	<path d="M38.8,23.5c0,10.7-8.7,19.4-19.4,19.4S0,34.2,0,23.5c0-7.9,4.8-15,12.1-18c0.8-0.3,1.6,0,2,0.7c0.3,0.8,0,1.6-0.7,2
		c0,0-0.1,0-0.1,0c-8.4,3.4-12.4,13-9,21.4s13,12.4,21.4,9s12.4-13,9-21.4c-1.7-4.1-4.9-7.4-9-9c-0.8-0.3-1.2-1.1-0.9-1.9
		c0.3-0.8,1.1-1.2,1.9-0.9c0,0,0.1,0,0.1,0C34.1,8.4,38.9,15.6,38.8,23.5z M19.4,21.7c0.8,0,1.5-0.7,1.5-1.5V1.5
		c0-0.8-0.7-1.5-1.5-1.5s-1.5,0.7-1.5,1.5v18.7C17.9,21,18.6,21.7,19.4,21.7z"/>
</g>
</svg>
