<?xml version="1.0" encoding="utf-8"?>
<!-- Generator: Adobe Illustrator 26.0.1, SVG Export Plug-In . SVG Version: 6.00 Build 0)  -->
<svg version="1.1" id="Calque_1" xmlns="http://www.w3.org/2000/svg" xmlns:xlink="http://www.w3.org/1999/xlink" x="0px" y="0px"
	 viewBox="0 0 420 444.9" style="enable-background:new 0 0 420 444.9;" xml:space="preserve">
<g>
	<path d="M260.2,31l-4.2,17h0c45.7,11.3,85.6,38.9,112.3,77.6c26.7,38.7,38.3,85.9,32.7,132.6c-5.7,46.7-28.2,89.7-63.4,120.9
		c-35.2,31.2-80.6,48.4-127.6,48.4c-47,0-92.4-17.2-127.6-48.4c-35.2-31.2-57.8-74.2-63.4-120.9c-5.7-46.7,5.9-93.8,32.7-132.5
		C78.3,86.9,118.2,59.3,163.9,48l-4.2-17c-49.8,12.3-93.4,42.4-122.6,84.6C8,157.9-4.7,209.3,1.5,260.2
		c6.2,50.9,30.8,97.8,69.2,131.9c38.4,34,87.9,52.8,139.2,52.8s100.8-18.8,139.3-52.8c38.4-34,63-80.9,69.2-131.9
		c6.2-50.9-6.5-102.4-35.6-144.6C353.7,73.4,310.1,43.3,260.2,31L260.2,31z"/>
	<path d="M201.2,0h17.5v237.8h-17.5V0z"/>
</g>
</svg>
