<svg width="11" height="11" viewBox="0 0 11 11" fill="none" xmlns="http://www.w3.org/2000/svg">
<g clip-path="url(#clip0_11_270)">
<path fill-rule="evenodd" clip-rule="evenodd" d="M6.46265 7.42496C5.77515 7.90621 4.95015 8.18121 4.0564 8.18121C1.78765 8.18121 -0.0686035 6.32496 -0.0686035 4.05621C-0.0686035 1.78746 1.78765 -0.0687866 4.0564 -0.0687866C6.32515 -0.0687866 8.1814 1.78746 8.1814 4.05621C8.1814 4.94996 7.9064 5.77496 7.42515 6.46246L11.0001 10.0375L10.0376 11L6.46265 7.42496ZM6.87515 4.12496C6.87515 5.63746 5.63765 6.87496 4.12515 6.87496C2.61265 6.87496 1.37515 5.63746 1.37515 4.12496C1.37515 2.61246 2.61265 1.37496 4.12515 1.37496C5.63765 1.37496 6.87515 2.61246 6.87515 4.12496Z" fill="white"/>
</g>
<defs>
<clipPath id="clip0_11_270">
<rect width="11" height="11" fill="white"/>
</clipPath>
</defs>
</svg>
