<svg xmlns="http://www.w3.org/2000/svg" viewBox="0 0 16.6 16.6" x="0px" y="0px">
<path d="M6.2,1.5v6.2c0,0.8-0.7,1.5-1.5,1.5H1.5C0.7,9.2,0,8.5,0,7.7V1.5C0,0.7,0.7,0,1.5,0h3.2C5.5,0,6.2,0.7,6.2,1.5z M4.7,10.3
	H1.5C0.7,10.3,0,11,0,11.8v3.3c0,0.8,0.7,1.5,1.5,1.5h3.2c0.8,0,1.5-0.7,1.5-1.5v-3.3C6.2,11,5.5,10.3,4.7,10.3z M15.1,6.7H8.8
	C8,6.7,7.3,7.3,7.3,8.1v7c0,0.8,0.7,1.5,1.5,1.5h6.3c0.8,0,1.5-0.7,1.5-1.5v-7C16.6,7.3,16,6.7,15.1,6.7z M15.1,0H8.8
	C8,0,7.3,0.7,7.3,1.5V4c0,0.8,0.7,1.5,1.5,1.5h6.3c0.8,0,1.5-0.7,1.5-1.5V1.5C16.6,0.7,16,0,15.1,0z"/>
</svg>
