<svg width="22" height="19" viewBox="0 0 22 19" xmlns="http://www.w3.org/2000/svg">
<path d="M6.43006 18.59C6.43006 18.6355 6.43006 18.6811 6.47599 18.6811C6.47599 18.7266 6.52192 18.7266 6.52192 18.7722C6.52192 18.7722 6.52192 18.7722 6.52192 18.8178C6.52192 18.8633 6.52192 18.8178 6.52192 18.8178C6.56785 18.8633 6.61378 18.9089 6.65971 18.9089C6.70564 18.9089 6.75157 18.9545 6.79749 18.9545H6.84342C6.88935 18.9545 6.93528 18.9545 6.98121 18.9545C7.02714 18.9545 7.07307 18.9089 7.119 18.8633L11.7578 15.4005L15.2944 17.9976C15.3862 18.0432 15.4781 18.0888 15.5699 18.0888C15.6159 18.0888 15.6618 18.0888 15.7077 18.0888C15.8455 18.0432 15.9374 17.9521 16.0292 17.8154L22 0.592354C22 0.54679 22 0.54679 22 0.501227C22 0.501227 22 0.501227 22 0.455663V0.4101C22 0.318973 21.9541 0.227846 21.9081 0.136718C21.9081 0.136718 21.9081 0.0911549 21.8622 0.0911549C21.7244 -0.0455357 21.5407 -0.0910993 21.4029 -0.0455357L0.321503 5.60434C0.137787 5.64991 -1.35973e-07 5.7866 -1.35973e-07 5.96885C-0.0459292 6.15111 0.0459289 6.33336 0.183716 6.42449L5.51148 10.1151L6.43006 18.59ZM8.40501 12.3022C8.40501 12.3022 8.35908 12.3022 8.40501 12.3022C8.35908 12.3477 8.35908 12.3933 8.31315 12.3933L8.26722 12.4389L7.07307 16.2206L6.43006 10.1151L18.142 3.05278L8.40501 12.3022ZM7.71607 17.3142L8.95616 13.3501L11.023 14.8537L7.71607 17.3142ZM15.3862 16.9497L9.41545 12.5756L20.4843 2.09595L15.3862 16.9497ZM18.5553 1.73144L5.97077 9.34055L1.51566 6.24223L18.5553 1.73144Z" />
<path d="M6.70563 17.9521L5.97076 9.88731L19.1983 2.09595L10.4259 10.7075L8.72651 12.4844L6.70563 17.9521Z" />
</svg>
