<?xml version="1.0" encoding="utf-8"?>
<!-- Generator: Adobe Illustrator 26.0.1, SVG Export Plug-In . SVG Version: 6.00 Build 0)  -->
<svg version="1.1" id="Calque_1" xmlns="http://www.w3.org/2000/svg" xmlns:xlink="http://www.w3.org/1999/xlink" x="0px" y="0px"
	 viewBox="0 0 518.6 293.5" style="enable-background:new 0 0 518.6 293.5;" xml:space="preserve">
<g>
	<path d="M316.3,68.5c-0.1,11-2.8,22.1-7.2,32.5c-4.7,11-11.2,21.3-19.7,29.7c-7.3,7.2-16.9,13.1-26.4,14.1
		c-10.6,1.1-19.8-2.7-28.4-9.1c-8.9-6.6-16.1-16.7-21.5-26.6c-5.4-10-9.4-21.9-10.6-32.6c-2.7-23.6,8.3-46.2,29.1-57.9
		c17.6-9.9,39.7-9.2,57,1.1C305.8,29.7,316.2,48.6,316.3,68.5c0,7.4,11.5,7.4,11.5,0C327.6,42.8,313,18.8,290,7.2
		c-23.6-11.9-52.4-8.8-73.1,7.4c-9.9,7.7-17.3,18.1-21.9,29.8c-4.6,11.8-5.1,24.5-3.3,36.9c1.8,12.2,6.3,24,12.2,34.8
		c5.8,10.6,13.6,20.6,23.2,28.1c9.3,7.2,20.2,12.1,32.1,12.2c11.8,0.1,22.9-5,32.1-12.2c19-14.9,31.6-39.3,35.4-62.9
		c0.7-4.2,1.1-8.5,1.1-12.8C327.8,61.1,316.3,61.1,316.3,68.5L316.3,68.5z"/>
	<path d="M379.5,237.6v50.2c1.9-1.9,3.8-3.8,5.7-5.7h-51.1H229.7h-84.4h-12c1.9,1.9,3.8,3.8,5.7,5.7v-40.9c0-5.8-0.3-12,0.5-17.6
		c1.7-11.6,6.7-22.3,14.5-31c8.8-9.8,20.4-16.1,33.3-18.6c8.2-1.6,17.1-0.9,25.6-0.9c-1.7-0.9-3.3-1.9-5-2.8
		c15.2,20.8,30.5,41.6,45.7,62.4c0.3,0.4,0.5,0.7,0.8,1.1c2.7,3.7,7.2,3.7,9.9,0c15.1-20.8,30.3-41.7,45.4-62.5
		c0.2-0.3,0.5-0.7,0.7-1c-1.7,0.9-3.3,1.9-5,2.8c5.3,0,10.6,0,15.8,0c10.3,0.1,20.4,3,29.3,8.3C368.6,197.5,379.4,217,379.5,237.6
		c0,7.4,11.5,7.4,11.5,0c-0.1-25.7-14.3-49.6-36.9-61.8c-10.4-5.7-22.2-8.4-34-8.4h-11.5c-3.4,0-5.9,0.1-8.2,3.2
		c-15.3,21-30.5,42-45.8,63c0,0.1-0.1,0.1-0.1,0.2h9.9c-15.2-20.8-30.5-41.6-45.7-62.4c-1.6-2.1-3.2-4-6.2-4h-11.2
		c-11,0-21.5,1.5-31.6,5.9c-23.6,10.2-39.3,32.9-41.8,58.2c-0.9,9.6-0.3,19.4-0.3,29v27.3c0,3.1,2.6,5.7,5.7,5.7h51.1h104.4h84.4h12
		c3.1,0,5.7-2.6,5.7-5.7v-50.2C391,230.1,379.5,230.1,379.5,237.6L379.5,237.6z"/>
	<path d="M458.1,95.9c-0.1,11-3.7,22.2-9.2,32.2c-5.5,9.9-13,18.6-23.2,23.5c-4.1,2-8.8,2.6-13.8,2.2c1,0.1-1-0.2-1-0.2
		c-0.6-0.1-1.2-0.3-1.9-0.4c-1.2-0.3-2.4-0.7-3.6-1.2c-1.7-0.6-4.6-2.3-6.7-3.7c-9.2-6.1-16.1-16.6-20.8-26.8
		c-4.6-10.1-7.1-21.6-5.4-32.3c1.8-11.2,8.1-21.5,17.2-28c19.2-13.9,46.9-9.3,60.5,10.1C455.4,78.5,458,87,458.1,95.9
		c0.1,7.4,11.5,7.4,11.5,0c-0.2-26.2-19.4-49.4-45.4-53.7c-26.5-4.3-52.2,11.4-60.8,36.8c-8.1,23.8,2.6,51.8,18.7,69.7
		c8,8.9,18.5,15.4,30.6,16.6c11.9,1.2,23.2-4.8,31.7-12.6c15.3-13.9,25.2-36.2,25.3-56.8C469.6,88.5,458.1,88.5,458.1,95.9
		L458.1,95.9z"/>
	<path d="M420.2,229.1c11.9-16.4,23.9-32.9,35.8-49.3c-1.7,0.9-3.3,1.9-5,2.8c7.9,0,15.8-0.5,23.5,1.6c10.9,2.9,20.2,10.2,26.1,19.7
		c4.7,7.7,6.4,16.1,6.4,25.1v23.6V266c1.9-1.9,3.8-3.8,5.7-5.7h-81.9h-15.6c-7.4,0-7.4,11.5,0,11.5h81.9h15.6c3.1,0,5.7-2.6,5.7-5.7
		v-38.5c0-24.6-16.1-46.5-39.5-53.9c-8.9-2.8-18.2-2.4-27.4-2.4c-3.2,0-4.8,2-6.5,4.3c-1.5,2.1-3,4.2-4.6,6.3
		c-9.3,12.8-18.6,25.6-27.9,38.4c-0.8,1.1-1.5,2.1-2.3,3.2c-1.8,2.5-0.4,6.4,2.1,7.9C415.3,232.9,418.4,231.7,420.2,229.1
		L420.2,229.1z"/>
	<path d="M146.4,95.9c-0.1,11-3.7,22.2-9.2,32.2c-5.5,9.9-13,18.6-23.2,23.5c-4.1,2-8.8,2.6-13.8,2.2c1,0.1-1-0.2-1-0.2
		c-0.6-0.1-1.2-0.3-1.9-0.4c-1.2-0.3-2.4-0.7-3.6-1.2c-1.7-0.6-4.6-2.3-6.7-3.7c-9.2-6.1-16.1-16.6-20.8-26.8
		c-4.6-10.1-7.1-21.6-5.4-32.3c1.8-11.2,8.1-21.5,17.2-28c19.2-13.9,46.9-9.3,60.5,10.1C143.7,78.5,146.3,87,146.4,95.9
		c0.1,7.4,11.5,7.4,11.5,0c-0.2-26.2-19.4-49.4-45.4-53.7c-26.5-4.3-52.2,11.4-60.8,36.8c-8.1,23.8,2.6,51.8,18.7,69.7
		c8,8.9,18.5,15.4,30.6,16.6c11.9,1.2,23.2-4.8,31.7-12.6c15.3-13.9,25.2-36.2,25.3-56.8C157.9,88.5,146.4,88.5,146.4,95.9
		L146.4,95.9z"/>
	<path d="M103.6,260.2H21.7h-16c1.9,1.9,3.8,3.8,5.7,5.7v-38.5c0-22.4,16.2-40.9,38.3-44.4c5.6-0.9,11.9-0.4,17.7-0.4
		c-1.7-0.9-3.3-1.9-5-2.8c12,16.4,24.1,32.9,36.1,49.3c1.8,2.5,4.9,3.8,7.9,2.1c2.5-1.5,3.9-5.3,2.1-7.9
		c-7.7-10.5-15.4-21.1-23.1-31.6c-3.9-5.4-7.9-10.7-11.8-16.1c-1.6-2.2-3.2-4.4-6.4-4.4H56.5c-25.2,0-47.6,16.6-54.5,40.9
		c-2.1,7.5-2,15.1-2,22.7v25.3v5.8c0,3.1,2.6,5.7,5.7,5.7h81.8h16C111,271.7,111,260.2,103.6,260.2L103.6,260.2z"/>
</g>
</svg>
