<?xml version="1.0" encoding="utf-8"?>
<!-- Generator: Adobe Illustrator 21.1.0, SVG Export Plug-In . SVG Version: 6.00 Build 0)  -->
<svg version="1.1" id="Calque_1" xmlns="http://www.w3.org/2000/svg" xmlns:xlink="http://www.w3.org/1999/xlink" x="0px" y="0px"
	 viewBox="0 0 49.8 53.7" style="enable-background:new 0 0 49.8 53.7;" xml:space="preserve">
<path d="M37.1,30.4c3.3-3.2,5.3-7.7,5.3-12.7C42.4,7.9,34.6,0,25,0S7.6,8,7.6,17.7c0,4.7,1.8,9,4.8,12.2C4.6,34.4-0.2,42.9,0,52.2
	c0,0.8,0.7,1.5,1.5,1.5l0,0c0.8,0,1.5-0.7,1.4-1.5c-0.2-8.5,4.3-16.3,11.7-20.1c0.2,0.1,0.3,0.2,0.5,0.3l0.1,0.1
	c0.4,0.3,0.9,0.6,1.4,0.8l0,0c4.6,2.6,10.2,2.8,15,0.8c0,0,0.1,0,0.1-0.1c0.5-0.2,1-0.4,1.4-0.7l0,0c0.5-0.3,1-0.6,1.4-0.9
	c7.1,4.2,11.7,11.5,12.3,19.9c0.1,0.8,0.7,1.4,1.5,1.4h0.1c0.8-0.1,1.4-0.8,1.4-1.6C49.3,43.1,44.5,35.1,37.1,30.4z M25,2.9
	c8,0,14.5,6.6,14.5,14.7c0,5-2.5,9.5-6.3,12.1c-0.1,0-0.1,0.1-0.2,0.1c-0.3,0.2-0.7,0.4-1,0.6c0,0-0.1,0-0.1,0.1
	c-2,1.1-4.4,1.8-6.9,1.8c-1.5,0-2.9-0.2-4.3-0.7c0,0,0,0-0.1,0c-0.4-0.1-0.8-0.3-1.2-0.5h-0.1c-5.2-2.2-8.8-7.5-8.8-13.6
	C10.5,9.5,17,2.9,25,2.9z"/>
</svg>
